<svg width="128" height="128" version="1.1" viewBox="0 0 33.867 33.867" xmlns="http://www.w3.org/2000/svg">
	<path transform="scale(.26458)" d="m26.785 0c-14.839 0-26.785 11.946-26.785 26.785v37.215a64 64 0 0 0 0 0.29688v36.918c0 14.839 11.946 26.785 26.785 26.785h37.215a64 64 0 0 0 64-64 64 64 0 0 0-64-64h-0.29688z" fill="#fae" stroke-linecap="round" stroke-linejoin="round" stroke-width="86.797"/>
	<g fill="#2b0022" opacity=".99344">
		<path d="m3.8648 8.3571v8.5762c-4.69e-5 0.02021-4.69e-5 0.04042 0 0.06062v8.5156a4.4923 4.4923 0 0 0 4.4923 4.4923h8.5762c7.2175 0 13.069-5.851 13.069-13.069 0-0.27378-0.0086-0.54742-0.02578-0.82053-0.02831-0.45013-0.4424-0.81304-0.8935-0.81304h-11.332a0.81678 0.81678 0 0 0-0.81678 0.81678v3.2671a0.81678 0.81678 0 0 0 0.81678 0.81678h5.8523c0.4511 0 0.67397 0.33784 0.45336 0.7311-1.4343 2.5567-4.149 4.1696-7.1224 4.1696h-6.5343a1.6336 1.6336 0 0 1-1.6336-1.6336v-13.069a1.6336 1.6336 0 0 1 1.6336-1.6336h6.5343c2.9734 3.3e-5 5.6881 1.6129 7.1224 4.1696 0.22061 0.39326 0.72911 0.7311 1.1802 0.7311h3.5343c0.4511 0 0.72784-0.35514 0.58822-0.78401-1.7411-5.348-6.7397-9.0175-12.425-9.0174h-8.5762a4.4923 4.4923 0 0 0-4.4923 4.4923z" fill="#2b0022" stroke-linecap="round" stroke-linejoin="round" stroke-width="22.965"/>
	</g>
</svg>
